inDegrees=no
num_controls=7
num_derivatives=13
num_iterations=114
num_multipliers=7
num_parameters=0
num_slacks=7
num_states=26
objective=6.127731
objective_accelerations=0.625323
objective_balance=0.067933
objective_effort=0.509678
objective_height=4.854912
objective_ligament=0.069885
solver_duration=1195.791079
status=Solve_Succeeded
success=true
DataType=double
version=3
OpenSimVersion=4.4-2022-07-23-0e9fedc
endheader
time	/jointset/ground_pelvis/pelvis_tilt/value	/jointset/ground_pelvis/pelvis_tx/value	/jointset/ground_pelvis/pelvis_ty/value	/jointset/hip_l/hip_flexion_l/value	/jointset/hip_l/hip_adduction_l/value	/jointset/hip_l/hip_rotation_l/value	/jointset/back/lumbar_extension/value	/jointset/patellofemoral_l/patellar_flexion_l/value	/jointset/knee_l/knee_flexion_l/value	/jointset/knee_l/knee_adduction_l/value	/jointset/knee_l/knee_rotation_l/value	/jointset/ankle_l/ankle_angle_l/value	/jointset/subtalar_l/subtalar_angle_l/value	/jointset/ground_pelvis/pelvis_tilt/speed	/jointset/ground_pelvis/pelvis_tx/speed	/jointset/ground_pelvis/pelvis_ty/speed	/jointset/hip_l/hip_flexion_l/speed	/jointset/hip_l/hip_adduction_l/speed	/jointset/hip_l/hip_rotation_l/speed	/jointset/back/lumbar_extension/speed	/jointset/patellofemoral_l/patellar_flexion_l/speed	/jointset/knee_l/knee_flexion_l/speed	/jointset/knee_l/knee_adduction_l/speed	/jointset/knee_l/knee_rotation_l/speed	/jointset/ankle_l/ankle_angle_l/speed	/jointset/subtalar_l/subtalar_angle_l/speed	/forceset/tau_hip_flexion_l	/forceset/tau_hip_adduction_l	/forceset/tau_hip_rotation_l	/forceset/tau_knee_flexion_l	/forceset/tau_ankle_angle_l	/forceset/tau_subtalar_angle_l	/forceset/tau_lumbar_extension	lambda_cid13_p0	lambda_cid13_p1	lambda_cid13_p2	lambda_cid13_p3	lambda_cid13_p4	lambda_cid13_p5	lambda_cid14_p0	/jointset/ground_pelvis/pelvis_tilt/accel	/jointset/ground_pelvis/pelvis_tx/accel	/jointset/ground_pelvis/pelvis_ty/accel	/jointset/hip_l/hip_flexion_l/accel	/jointset/hip_l/hip_adduction_l/accel	/jointset/hip_l/hip_rotation_l/accel	/jointset/back/lumbar_extension/accel	/jointset/patellofemoral_l/patellar_flexion_l/accel	/jointset/knee_l/knee_flexion_l/accel	/jointset/knee_l/knee_adduction_l/accel	/jointset/knee_l/knee_rotation_l/accel	/jointset/ankle_l/ankle_angle_l/accel	/jointset/subtalar_l/subtalar_angle_l/accel	gamma_cid13_p0	gamma_cid13_p1	gamma_cid13_p2	gamma_cid13_p3	gamma_cid13_p4	gamma_cid13_p5	gamma_cid14_p0
0.5	-0.09366094383137373	-0.02674446236604031	0.7998608682600816	0.944885599205906	-0.3280756255902312	-0.07020282831049292	-0.7916647450239064	0.976917976656335	0.9769179766562995	-0.08708134404376226	-0.1745065337912909	0.1959652789025093	0.03281526468340704	-0.1206924643464335	-0.1227275715547531	-0.4499011266235819	1.641234989360136	-0.02629952634919251	0.567756932649123	-0.8408508474562774	1.928794102306703	1.928794102306542	0.1948957579447141	7.360700446264677e-05	0.5424393077890977	0.1704988012135907	-0.2729368887796159	0.03080108558221542	-0.006553054270788184	-0.2461099752483907	0.04451738442125979	0.04372676572293394	0.3280663188522258	-29.18369175434999	-15.60641339442627	4.004982798239106	-6.500289711643344	-698.5412268783152	-70.89793878872224	-7.451198267160478	0.309601031485065	0.6430773488312421	-0.2458377792882398	-1.519966568130221	0.3007943709224256	-0.6095619878503423	1.924232187283715	-1.526812226433768	-1.526812226433737	-0.1881657418956834	-0.002460641431894045	-0.404790960442192	0.3292881367275353	-3.490307969107376e-07	-3.087585714608429e-07	2.19370229974841e-06	1.921034216141567e-07	-4.04929990023241e-07	-2.343693158421806e-07	-3.013603148970921e-07
0.51	-0.09485212679174837	-0.02793957021129584	0.7953506155278277	0.9612192632895032	-0.328324684545934	-0.06455441825501916	-0.7999761827647957	0.9961264945203918	0.9961264945202574	-0.08514519071038638	-0.1745060405556019	0.2013681804489705	0.0345349574890144	-0.1175234006802613	-0.1162940435079837	-0.4520441823955406	1.625265319661904	-0.0235229591429411	0.5618632260964829	-0.8213415121438737	1.912635168339016	1.912635168339045	0.1923285253505428	2.324332557810744e-05	0.5380610807654139	0.1734040899929932	-0.2794335819648305	0.03142297607145608	-0.006647001677647624	-0.2500035899073918	0.04236709388169233	0.04350090562140434	0.3346119251222155	-30.16539834437428	-15.24867834155924	3.847712498422562	-6.164726718894763	-703.5525411554437	-70.5194878977567	-6.694308199383892	0.3236388388675358	0.6435211789642339	-0.1828338601988348	-1.670383373351103	0.2641860616151325	-0.5888469939350731	1.978562489901086	-1.701518776862063	-1.701518776833411	-0.2919872703751493	-0.006168974140496616	-0.4663320150842549	0.2655956545661257	-3.362106103622905e-07	-2.78673526822219e-07	2.15883973145337e-06	1.906137283196356e-07	-3.876858777995774e-07	-1.779215932823278e-07	-2.953412954466829e-07
0.52	-0.09601100315452159	-0.02907033664681092	0.7908220733610448	0.9773862474355866	-0.3285463581963445	-0.05896685966606414	-0.8080896714952237	1.01516520608578	1.015165206085558	-0.08323490675336742	-0.1745060199053042	0.2067249010368444	0.03628259246362005	-0.1142311448267182	-0.1098592896066632	-0.4535590135294444	1.607899001856414	-0.02082246529114728	0.5555866393452741	-0.8012610453641712	1.894832842574298	1.894832842574519	0.1897218826684824	-2.091007424925645e-05	0.5332031160716193	0.1760872350131789	-0.285930275150032	0.03204486656070666	-0.006740949084277555	-0.2538972045663933	0.04021680334212581	0.04327504551988413	0.3411575313922149	-31.14609055907504	-14.89417872408806	3.694452848996378	-5.892170785038754	-708.5750202282713	-70.20550337768361	-5.978857856169187	0.3342394689592381	0.6433225197414495	-0.1201928516772389	-1.799296189582071	0.2855797000309044	-0.6861380275641402	2.038458480743536	-1.855490585839779	-1.855490585839735	-0.1960477594735185	-0.001218585620520471	-0.5007384944644205	0.2848593848841249	-3.145354001300195e-07	-1.754732067569691e-07	2.120362348921105e-06	1.964179760133435e-07	-3.628185740204792e-07	-9.204436701092692e-08	-2.805762843120843e-07
0.53	-0.09713639714061194	-0.03013682414914309	0.7862815329278076	0.9933728089184685	-0.3287413375036134	-0.0534437379669899	-0.8159996521241806	1.034017884125252	1.034017884124989	-0.08135088552687522	-0.1745062562463143	0.2120307358121603	0.03805602981018143	-0.1108288684159242	-0.1034451567206488	-0.4544420705702779	1.589190749331503	-0.01818909166333995	0.5489824231499345	-0.7806588466835349	1.875440601012033	1.875440601012091	0.1870679503046255	-3.026063475356703e-05	0.5278875724841495	0.1785575539108525	-0.2921752167234172	0.03243756043539287	-0.006768704957896238	-0.2579143592588268	0.03796752619651557	0.04299776615654229	0.3474282467972877	-32.16266705938443	-14.50855534292234	3.533362967814925	-5.47532395107791	-713.5299893827563	-69.8999193901877	-5.305868343354443	0.3460130853711526	0.6394566871426466	-0.05638169952760914	-1.940007955105057	0.2495581021719597	-0.6561157659397578	2.082535623312337	-2.020361023494674	-2.020361023519115	-0.3022356845609259	-0.0009645427248562803	-0.5583979140536544	0.2214884966004956	-2.904838180041289e-07	-7.31922949313899e-08	2.065551161563318e-06	2.004203962297881e-07	-3.361481104278586e-07	-7.337738458757576e-09	-2.63831959610905e-07
